<?xml version="1.0" standalone="no"?><!DOCTYPE svg PUBLIC "-//W3C//DTD SVG 1.1//EN" "http://www.w3.org/Graphics/SVG/1.1/DTD/svg11.dtd"><svg t="1771773213734" class="icon" viewBox="0 0 1024 1024" version="1.1" xmlns="http://www.w3.org/2000/svg" p-id="955" xmlns:xlink="http://www.w3.org/1999/xlink" width="1024" height="1024"><path d="M246.87856197 81.12856666c-8.09111351 1.4925355-15.55379103 4.556161-22.85935954 9.50509449-17.59620803 11.86172951-37.62760558 32.05023607-42.49798458 42.8907571-3.92772502 8.64099502-3.69206151 4.32049751-4.16338852 83.50343366l-0.39277249 74.62677515-2.74940751 5.10604252c-7.93400451 14.76824603-25.84443055 27.02274804-42.65509359 29.14371955-7.46267753 0.94265401-10.52630302 1.9638625-11.54751151 3.84917052-0.3927725 0.7069905-0.7069905 9.50509451-0.78554501 19.48151603V367.45971972l1.88530801 1.9638625c1.0212085 1.0212085 3.22073452 2.1209715 4.87037901 2.35663499 6.6771325 1.09976302 13.90414653 2.82796201 17.91042604 4.39905203 10.44774851 3.8491705 26.23720306 17.12488105 30.87191855 25.92298504l2.19952601 4.24194302 0.471327 71.48459514c0.3927725 64.49324463 0.54988149 72.03447664 1.80675351 77.37618264 2.35663501 10.29063953 8.09111351 19.95284304 17.43909903 29.45793756 16.02511803 16.33933604 32.75722657 27.80829306 46.66137308 31.89312706 5.2631515 1.4925355 8.16966803 1.72819901 27.88684755 2.04241701 18.69597103 0.31421799 22.23092353 0.15710901 23.56635005-0.785545 1.4925355-1.17831749 1.57108999-2.1209715 1.57109001-24.11623154 0-21.75959654-0.0785545-22.93791404-1.4925355-24.03767706-1.17831749-0.8640995-4.39905201-1.09976302-13.51137402-1.09976299-13.98270102 0-18.61741653-0.7069905-25.21599456-3.92772502-6.127251-2.98507101-15.63234555-11.86172951-18.69597104-17.36054454l-2.356635-4.24194301-0.3927725-71.09182262-0.47132699-71.09182265-2.04241701-5.57736951c-3.69206151-10.05497602-8.01255901-16.88921754-16.18222704-25.60876705-7.22701402-7.69834101-20.03139755-17.67476253-24.43044955-19.08874354-2.51374401-0.78554501-2.042417-1.57108999 2.51374403-3.8491705 2.27808051-1.17831749 6.28436002-3.69206151 8.79810399-5.65592402 5.97014202-4.39905201 17.36054453-15.55379103 19.63862506-19.16729803 6.52002352-10.36919402 10.13353052-19.87428854 11.3904025-29.53649206 0.54988149-3.8491705 0.78554501-30.47914606 0.70699051-71.01326815-0.0785545-45.71871909 0.15710901-65.43589865 0.785545-67.00698863 2.51374401-6.36291451 10.68341202-15.23957303 18.38175303-19.95284304 4.00627951-2.43518948 5.4202605-2.82796201 12.17594753-3.45639801 4.16338851-0.31421799 12.09739302-0.628436 17.67476253-0.70699049 14.21836453 0 13.11860153 2.1209715 13.11860154-25.13744006 0-20.97405153-0.0785545-22.07381455-1.57109001-23.56635003-1.4925355-1.4925355-2.59229851-1.57108999-22.15236904-1.49253552-13.27571052 0-22.62369604 0.3927725-26.15864856 1.09976302zM438.39443334 82.46399314c-3.06362551 2.59229851-31.18613657 30.24348257-78.16172763 76.82630116L332.89573964 186.39159684v214.45378544c0 117.91030474 0.31421799 214.84655792 0.62843602 215.31788493 1.6496445 2.51374401 4.00627951 2.7494075 28.90805603 2.35663501 16.88921754-0.31421799 25.21599454-0.7069905 25.92298507-1.33542652 0.94265401-0.78554501 1.09976302-22.38803254 1.09976301-135.50651276V347.03554967h130.63613374c125.60864576 0 130.79324276-0.0785545 131.97156026-1.41398101s1.33542651-4.32049751 1.33542652-26.62997554c0-23.33068654-0.0785545-25.21599454-1.41398102-26.39431205s-8.56244052-1.33542651-84.60319666-1.49253549l-83.11066117-0.23566352 0.0785545-14.92535502c0.0785545-8.24822251 0.0785545-17.20343554 0.15710901-19.95284305v-5.02748801l10.91907552-10.91907552 10.91907551-10.84052103 37.62760559-0.15710899c20.65983354-0.15710901 61.03684661-0.0785545 89.78779367 0.07855449l52.23874261 0.23566352 2.199526-1.96386251 2.12097151-2.042417v-24.74466756c0-21.44537855-0.15710901-24.90177655-1.25687202-25.92298504-1.09976302-1.09976302-11.46895703-1.25687199-102.9849497-1.25687201H484.27026144l-18.93163454 18.69597104c-10.36919402 10.21208501-23.01646855 22.62369604-27.96540205 27.41552057l-9.03376752 8.798104 0.31421801 31.50035456c0.23566351 26.08009405 0.0785545 31.42180006-0.78554501 31.42180005-0.628436 0-9.42654002 0.0785545-19.56007052 0.15710902l-18.46030754 0.23566349-0.3927725-40.45556758-0.39277251-40.45556758 13.35426502-13.35426503c7.38412301-7.30556852 24.50900404-24.35189504 38.17748708-37.86326908l24.74466754-24.58755854h112.09727175c109.97630022 0 112.01871722 0 112.88281671-1.49253548 0.47132701-0.94265401 0.78554501-10.60485751 0.785545-25.76587606 0-19.71717954-0.23566351-24.58755855-1.09976301-25.84443055-1.09976302-1.4925355-3.37784351-1.4925355-124.90165525-1.72819901l-123.72333775-0.15710901-2.98507101 2.513744zM729.04608393 80.89290314c-0.31421799 0.54988149-0.47132701 11.23329351-0.314218 23.80201356 0.15710901 21.36682405 0.31421799 22.85935954 1.72819901 24.35189505 1.41398101 1.41398101 2.82796201 1.57108999 18.22464402 1.9638625 16.57499953 0.3927725 16.65355405 0.3927725 21.36682404 2.7494075 6.52002352 3.29928901 15.47523652 12.25450203 18.46030755 18.61741654l2.35663499 4.9489335v67.63542465c0 42.49798459 0.31421799 69.20651463 0.78554503 71.87736763 3.37784351 17.91042605 19.48151604 38.49170507 38.72736857 49.33222611l4.6347155 2.5922985-3.45639801 2.04241699c-9.74075802 5.73447851-25.53021254 20.42417004-31.81457255 29.69360107-4.32049751 6.36291451-7.77689552 14.76824603-8.71954954 21.20971504-0.47132701 3.37784351-0.7069905 29.61504655-0.54988149 70.22772315 0.15710901 38.72736857 0 66.22144363-0.47132699 68.34241513-2.19952601 10.36919402-12.25450203 21.13116054-24.43044956 26.00153955-3.61350702 1.41398101-6.28436002 1.72819901-19.40296153 2.1209715-12.96149253 0.31421799-15.39668203 0.54988149-16.57499955 1.728199-1.17831749 1.17831749-1.33542651 3.770616-1.4925355 23.09502305-0.15710901 18.69597103 0 22.07381455 1.09976302 23.72345903l1.17831749 1.88530802h20.18850653c21.52393302 0 27.49407505-0.628436 35.58518858-3.61350699 10.76196654-4.00627951 26.15864854-14.76824603 38.49170508-27.02274808 11.86172951-11.70462053 17.43909904-20.18850656 20.50272455-31.02902755l1.80675349-6.28436001 0.23566351-70.69905015c0.23566351-80.04703567-0.23566351-73.99833914 6.91279601-83.50343367 2.1209715-2.90651651 6.83424151-7.54123201 10.29063951-10.36919402 10.13353052-8.09111351 20.34561553-12.56872002 33.07144458-14.53258253 1.8067535-0.31421799 4.24194301-1.25687199 5.341706-2.12097149l1.96386251-1.49253549v-19.08874354c0-17.51765354-0.15710901-19.16729804-1.41398099-20.34561556-0.8640995-0.78554501-5.02748801-1.9638625-10.05497604-2.9065165-6.75568702-1.17831749-10.05497602-2.27808051-15.71090002-5.10604251-15.31812754-7.69834101-27.57262956-21.28826954-29.69360106-32.91433557-0.31421799-1.72819901-0.7069905-34.40687107-0.86409951-72.66291264-0.31421799-72.97713065-0.31421799-72.89857616-3.770616-81.14679866-2.35663501-5.65592402-8.09111351-12.96149253-17.75331704-22.70225053-16.10367252-16.10367252-32.91433557-27.25841156-45.4045011-30.08637359-7.38412301-1.6496445-50.0392166-1.885308-51.06042509-0.31421799z" p-id="956"></path><path d="M534.78080506 386.15569076c-57.65900311 0.0785545-105.10592121 0.47132701-105.42013924 0.78554499-0.47132701 0.47132701-1.09976302 220.97380894-0.70699048 228.82925894 0.0785545 1.8067535 5.97014202 2.51374401 8.71954951 1.09976302 1.09976302-0.54988149 12.09739302-10.91907551 24.35189504-23.01646855l22.38803257-21.91670554 0.07855448-65.35734412c0.0785545-35.97796108 0.31421799-65.51445312 0.47132702-65.75011664 0.23566351-0.15710901 37.39194207-0.31421799 82.63933416-0.31421801 80.91113516 0 82.24656166-0.0785545 83.73909715-1.57108999 1.4925355-1.4925355 1.57108999-2.7494075 1.6496445-21.83815105 0.0785545-11.07618453 0.15710901-21.60248754 0.23566351-23.33068655 0.15710901-4.16338851-0.94265401-7.46267753-2.51374401-7.6197865-2.19952601-0.23566351-6.91279601-0.23566351-115.63222421 0zM191.65474836 804.77262207l0.23566351 109.03364623 21.83815104 0.23566349 21.75959654 0.15710901v-218.38151043h-43.99052008l0.15710899 108.9550917zM818.6767686 704.61563439c-0.31421799 0.54988149-0.54988149 8.01255901-0.47132699 16.65355403 0.15710901 16.02511803-0.94265401 31.81457257-3.37784351 46.3471551-0.628436 4.32049751-1.0212085 8.326777-0.86409949 8.87665852 0.31421799 0.78554501 3.06362551 1.0212085 11.07618449 1.02120848h10.60485754l1.80675351-2.985071c1.0212085-1.57108999 2.98507101-5.18459701 4.241943-8.01255902 4.9489335-10.52630302 7.46267753-16.18222702 8.64099503-19.24585253 0.628436-1.72819901 1.4925355-3.92772502 1.88530799-4.94893353 2.19952601-5.49881501 2.27808051-5.5773695 4.47760653-12.72582902 2.19952601-6.91279601 3.22073452-23.33068654 1.57108998-24.98033103-1.33542651-1.33542651-38.80592308-1.33542651-39.59146808 0zM14.592905 705.40117938c-0.15710901 0.31421799-0.15710901 47.4469181 0 104.71314871l0.15710901 104.08471271h46.3471551v-82.48222516l22.62369605-0.07855451c12.41161103 0 33.30710806-0.23566351 46.50426409-0.39277249l23.95912254-0.31421801 0.23566351-19.16729804 0.15710899-19.16729803-46.7399276 0.157109-46.73992758 0.0785545-0.23566351-24.19478605-0.15710899-24.11623156H166.36019932v-40.14134957l-75.80509265 0.15710899c-41.63388507 0.0785545-75.88364715 0.47132701-75.96220167 0.86409951zM722.91883293 753.24086998c-14.21836453 1.41398101-26.00153955 6.36291451-34.79964358 14.45402803-2.98507101 2.7494075-6.20580551 6.28436002-7.30556852 7.77689552-1.0212085 1.57108999-2.042417 2.82796201-2.27808049 2.82796199-0.23566351 0-0.3927725-4.71327001-0.39277252-10.36919401v-10.44774853l-21.68104202-0.23566351-21.68104207-0.15710899 0.23566352 12.72582902c0.15710901 7.06990501 0.23566351 42.34087558 0.23566349 78.47594566l0.0785545 65.67156215 2.827962 0.47132698c1.4925355 0.23566351 11.39040253 0.23566351 21.91670555 0l19.16729805-0.47132698 0.23566349-50.35343462 0.23566352-50.35343459 2.12097149-4.32049752c5.65592402-11.54751152 18.38175303-18.93163453 32.44300856-18.85308002 15.55379103 0.0785545 25.68732157 6.6771325 30.55770055 20.03139753 0.54988149 1.57108999 0.94265401 18.85308003 1.25687201 53.0242876l0.39277249 50.66765261 22.30947806 0.23566349 22.30947804 0.15710901-0.5498815-55.14525913c-0.31421799-32.28589956-0.8640995-56.71634912-1.3354265-58.75876611-1.885308-8.40533151-2.670853-10.91907551-5.18459701-16.33933602-7.54123201-16.81066303-24.35189504-28.43672906-43.83341109-30.40059157-9.58364903-0.94265401-11.15473903-0.94265401-17.28199002-0.31421799zM527.23957303 753.94786048c-5.49881501 1.0212085-14.76824603 4.39905201-19.87428854 7.30556853-4.87037901 2.7494075-14.61113702 11.62606602-16.26078154 14.84680053-0.628436 1.17831749-1.41398101 2.19952601-1.72819899 2.19952598-0.31421799 0-0.47132701-4.79182451-0.314218-10.60485751l0.23566349-10.60485753-21.83815104 0.15710899c-12.01883853 0.15710901-21.75959654 0.47132701-21.60248755 0.78554502 0.0785545 0.3927725 0.15710901 35.58518857 0.15710901 78.39739115v77.76895516h43.99052008v-47.76113609c0-28.67239257 0.31421799-49.09656258 0.78554501-51.21753411 1.8067535-7.93400451 8.40533151-16.33933604 16.18222703-20.73838803 9.50509451-5.2631515 25.68732157-5.73447851 35.82085208-0.94265402 4.16338851 1.9638625 9.26943102 7.30556852 11.31184803 11.78317502 3.06362551 6.75568702 3.5349525 14.53258254 2.98507098 52.31729711-0.31421799 19.24585254-0.31421799 39.82713157 0.07855451 45.71871911l0.5498815 10.84052101h43.83341109v-50.7462071c0-31.26469106-0.31421799-53.65272359-0.8640995-58.28743912-2.82796201-25.60876705-17.59620803-43.44063858-41.16255808-50.0392166-5.5773695-1.4925355-26.08009405-2.27808051-32.28589957-1.1783175zM923.62558083 753.94786048c-17.51765354 2.27808051-33.46421707 10.13353052-42.26232111 20.65983354-12.56872002 15.31812754-13.19715602 37.94182356-1.49253549 52.5529606 5.18459701 6.441469 16.18222702 13.19715602 27.02274805 16.65355404 6.52002352 2.1209715 12.96149253 3.770616 37.15627858 9.50509451 15.78945453 3.770616 19.71717954 5.34170603 23.95912255 9.81931252 6.20580551 6.52002352-0.15710901 16.96777203-12.17594753 20.10995205-6.36291451 1.57108999-23.40924106 1.17831749-29.45793756-0.7069905-8.79810401-2.82796201-15.86800901-8.79810401-18.06753503-15.16101854l-1.0212085-3.06362551-20.58127904-0.07855449-20.58127905-0.0785545 0.54988151 4.39905201c2.43518948 20.10995203 18.30319853 36.99916958 41.63388508 44.4618471 10.91907551 3.5349525 20.58127904 4.556161 36.92061506 4.08483399 17.75331703-0.54988149 25.68732157-2.19952601 39.35580458-8.40533152 10.21208501-4.556161 18.93163453-12.64727453 23.48779554-21.52393305 4.16338851-8.24822251 4.71327001-10.76196654 4.71327003-22.54514153v-10.60485751l-2.98507101-5.97014202c-5.10604252-10.36919402-16.81066303-19.56007054-30.00781906-23.72345905-5.97014202-1.8067535-21.36682405-5.5773695-34.48542557-8.32677703-20.97405153-4.47760652-27.57262956-7.22701402-30.32203707-13.04004701-1.885308-3.770616-1.9638625-5.18459701-0.471327-8.09111351 3.61350702-6.91279601 11.23329351-9.89786702 25.21599456-9.81931252 10.13353052 0 15.31812754 1.17831749 20.97405154 4.71326999 2.90651651 1.885308 7.06990501 7.14845952 8.012559 10.29063953 0.54988149 1.8067535 0.7069905 1.8067535 15.71090005 1.8067535 8.326777 0 17.36054453-0.23566351 20.10995204-0.5498815l4.87037902-0.47132699-0.47132701-4.24194302c-0.94265401-8.24822251-5.81303301-17.43909904-13.04004704-24.58755855-9.34798553-9.34798553-23.80201355-15.78945453-40.29845858-18.06753503-6.75568702-0.8640995-25.21599454-0.8640995-31.97168154 0zM255.12678449 757.7184765c0 0.31421799 0.31421799 0.94265401 0.70699051 1.33542648 0.3927725 0.47132701 2.1209715 4.32049751 3.8491705 8.64099503 4.00627951 10.21208501 37.62760558 88.45236718 48.1539086 112.17582622 1.72819901 3.770616 3.06362551 6.99135051 3.06362552 7.14845951 0 0.23566351 1.25687199 3.06362551 2.74940747 6.28436001 1.4925355 3.29928901 2.7494075 6.127251 2.74940752 6.36291452 0 0.23566351 1.25687199 3.06362551 2.74940752 6.28436001l2.670853 5.81303299-4.47760651 8.87665854c-5.49881501 10.84052103-12.33305652 18.46030753-18.53886206 20.50272455-4.9489335 1.6496445-14.37547353 1.72819901-23.56635003 0.07855449-3.8491705-0.628436-7.22701402-0.94265401-7.54123202-0.5498815-1.0212085 1.09976302-1.4925355 34.72108908-0.471327 35.50663407 1.57108999 1.17831749 7.69834101 2.35663501 17.91042604 3.29928901 21.44537855 2.1209715 38.09893258-3.14217999 51.53175211-16.41789054 8.71954951-8.64099502 14.06125553-16.96777203 21.05260604-32.67867206 1.9638625-4.39905201 4.00627951-9.03376752 4.63471551-10.29063952 0.54988149-1.33542651 1.8067535-4.32049751 2.7494075-6.67713252 0.94265401-2.35663501 2.51374401-6.04869651 3.45639801-8.24822251 0.94265401-2.1209715 2.59229851-6.04869651 3.53495249-8.64099503 1.0212085-2.59229851 2.1209715-5.49881501 2.51374402-6.5200235 0.3927725-0.94265401 1.0212085-2.51374401 1.41398099-3.53495251 0.31421799-0.94265401 1.0212085-2.59229851 1.49253551-3.6920615 0.3927725-1.09976302 1.57108999-4.08483399 2.59229851-6.67713251 0.94265401-2.59229851 2.7494075-6.91279601 4.0062795-9.66220352 1.17831749-2.670853 2.19952601-5.18459701 2.199526-5.57736953 0-0.31421799 0.47132701-1.6496445 1.09976301-2.90651649 0.628436-1.25687199 2.98507101-6.91279601 5.18459702-12.49016553 2.27808051-5.65592402 4.71327001-11.62606602 5.498815-13.35426503 0.78554501-1.72819901 4.63471551-11.31184801 8.64099502-21.20971504 3.92772502-9.97642153 7.69834101-19.16729804 8.24822252-20.42417004 0.54988149-1.33542651 1.41398101-3.61350702 2.042417-5.10604252 0.54988149-1.4925355 1.9638625-4.9489335 3.22073452-7.698341 1.17831749-2.670853 2.19952601-5.18459701 2.19952599-5.57736952s1.25687199-3.61350702 2.74940751-7.14845951 2.7494075-6.75568702 2.7494075-7.14845952-9.58364903-0.7069905-22.78080504-0.7069905c-17.59620803 0-22.93791404 0.23566351-23.17357754 0.94265401-0.23566351 0.94265401-12.25450203 32.91433557-23.80201357 63.86480862-8.16966803 21.68104205-13.35426503 36.05651557-13.90414653 38.25604157-0.54988149 2.27808051-1.8067535 2.90651651-2.27808049 1.17831751-1.885308-7.30556852-21.13116054-58.83732061-28.75094706-77.14051915-0.3927725-0.8640995-2.51374401-6.36291451-4.71327-12.17594753s-4.39905201-11.54751152-4.87037902-12.80438353l-0.78554499-2.1209715h-23.88056807c-13.11860153 0-23.88056804 0.31421799-23.88056803 0.62843602z" p-id="957"></path></svg>